STARTFONT 2.1
FONT big5.9400.16
SIZE 16 72 72
FONTBOUNDINGBOX 16 16 0 -2
STARTPROPERTIES 4
FONT_DESCENT 2
FONT_ASCENT 14
DEFAULT_CHAR 0
COPYRIGHT "Copyright (c) 1992 AT&T - All rights reserved."
ENDPROPERTIES
CHARS 164
STARTCHAR ch-0
ENCODING 0
SWIDTH 1000 0
DWIDTH 16 0
BBX 16 16 0 -2
BITMAP
1010
28fe
4492
00fe
7dff
1000
10fe
7c82
10fe
1082
54fe
3882
10fe
7d83
0000
0000
ENDCHAR
STARTCHAR ch-3
ENCODING 3
SWIDTH 1000 0
DWIDTH 16 0
BBX 16 16 0 -2
BITMAP
1010
28fe
4410
01ff
7c44
11ff
1044
7dff
1000
55ff
3848
1049
7c49
0187
0000
0000
ENDCHAR
STARTCHAR ch-6
ENCODING 6
SWIDTH 1000 0
DWIDTH 16 0
BBX 16 16 0 -2
BITMAP
7e24
24ff
2822
245c
2228
325c
2caa
21d9
0220
05d0
0888
17f4
02a0
0ff8
0000
0000
ENDCHAR
STARTCHAR ch-7
ENCODING 7
SWIDTH 1000 0
DWIDTH 16 0
BBX 16 16 0 -2
BITMAP
1002
28fc
4492
0054
7dff
1092
1111
7cfe
1092
1092
54fe
3892
1092
7cfe
0000
0000
ENDCHAR
STARTCHAR ch-9
ENCODING 9
SWIDTH 1000 0
DWIDTH 16 0
BBX 16 16 0 -2
BITMAP
11ef
2929
45ef
0108
7d29
10e7
1044
7dff
1044
1044
55ff
3844
1082
7d01
0000
0000
ENDCHAR
STARTCHAR ch-10
ENCODING 10
SWIDTH 1000 0
DWIDTH 16 0
BBX 16 16 0 -2
BITMAP
11de
2952
459e
0192
7d5e
1140
117f
7d50
11bf
112b
554b
3915
1129
7d06
0000
0000
ENDCHAR
STARTCHAR ch-11
ENCODING 11
SWIDTH 1000 0
DWIDTH 16 0
BBX 16 16 0 -2
BITMAP
123e
29a2
44be
0222
7dbe
1080
107f
7c10
10bf
1355
5515
3915
1169
7d06
0000
0000
ENDCHAR
STARTCHAR ch-12
ENCODING 12
SWIDTH 1000 0
DWIDTH 16 0
BBX 16 16 0 -2
BITMAP
1040
28fc
4508
00fe
7c92
10fe
1010
7c22
11d2
1034
55d8
3834
11d3
7c30
0000
0000
ENDCHAR
STARTCHAR ch-13
ENCODING 13
SWIDTH 1000 0
DWIDTH 16 0
BBX 16 16 0 -2
BITMAP
107c
2808
4450
01ff
7c2a
1048
1038
7dff
1145
11c7
5539
3929
1139
7d03
0000
0000
ENDCHAR
STARTCHAR ch-14
ENCODING 14
SWIDTH 1000 0
DWIDTH 16 0
BBX 16 16 0 -2
BITMAP
1048
2888
45ff
0288
7cfe
1088
1088
7cfe
1088
1088
54ff
3800
1125
7d25
0000
0000
ENDCHAR
STARTCHAR ch-15
ENCODING 15
SWIDTH 1000 0
DWIDTH 16 0
BBX 16 16 0 -2
BITMAP
1044
2828
45ff
0028
7cfe
10aa
10c6
7cba
10fe
1004
55ff
3884
1044
7c0c
0000
0000
ENDCHAR
STARTCHAR ch-16
ENCODING 16
SWIDTH 1000 0
DWIDTH 16 0
BBX 16 16 0 -2
BITMAP
1010
29ff
4511
00fe
7c28
1145
1082
7d7d
1044
107c
547c
3854
1092
7c30
0000
0000
ENDCHAR
STARTCHAR ch-17
ENCODING 17
SWIDTH 1000 0
DWIDTH 16 0
BBX 16 16 0 -2
BITMAP
1044
2844
449f
0124
7de4
1044
109f
7d20
11e0
105f
54f1
3951
1051
7c5f
0000
0000
ENDCHAR
STARTCHAR ch-18
ENCODING 18
SWIDTH 1000 0
DWIDTH 16 0
BBX 16 16 0 -2
BITMAP
1044
2955
44ee
0044
7caa
1111
1000
11ff
7d21
10fe
5422
3822
1042
7c1c
0000
0000
ENDCHAR
STARTCHAR ch-19
ENCODING 19
SWIDTH 1000 0
DWIDTH 16 0
BBX 16 16 0 -2
BITMAP
1048
2bf8
4408
01ef
7d2a
11f2
1002
7dea
102a
104a
55fa
3844
104a
7cd1
0000
0000
ENDCHAR
STARTCHAR ch-20
ENCODING 20
SWIDTH 1000 0
DWIDTH 16 0
BBX 16 16 0 -2
BITMAP
11ff
2828
45ff
0129
7dff
10fe
1082
7cfe
1082
10fe
5410
39ff
1010
7c10
0000
0000
ENDCHAR
STARTCHAR ch-21
ENCODING 21
SWIDTH 1000 0
DWIDTH 16 0
BBX 16 16 0 -2
BITMAP
11ef
28c6
454a
01ef
7cc6
114a
1273
1000
7cfe
1082
54fe
3882
10fe
7c82
0000
0000
ENDCHAR
STARTCHAR ch-22
ENCODING 22
SWIDTH 1000 0
DWIDTH 16 0
BBX 16 16 0 -2
BITMAP
104a
28ad
45ef
004a
7cad
11ef
100a
7dff
1009
1088
548a
3885
116b
7c01
0000
0000
ENDCHAR
STARTCHAR ch-24
ENCODING 24
SWIDTH 1000 0
DWIDTH 16 0
BBX 16 16 0 -2
BITMAP
0020
1010
29ff
4444
01ff
7cfe
1092
10fe
7c92
10fe
5410
38fe
1010
7dff
0000
0000
ENDCHAR
STARTCHAR ch-25
ENCODING 25
SWIDTH 1000 0
DWIDTH 16 0
BBX 16 16 0 -2
BITMAP
11e8
282a
452d
00c6
7c82
137d
1000
7c7c
1044
107c
5400
3844
1028
7dff
0000
0000
ENDCHAR
STARTCHAR ch-32
ENCODING 32
SWIDTH 1000 0
DWIDTH 16 0
BBX 16 16 0 -2
BITMAP
1082
2844
45ff
0028
7caa
106c
11ff
7c00
10fe
1082
54fe
3882
10fe
7c82
0000
0000
ENDCHAR
STARTCHAR ch-40
ENCODING 40
SWIDTH 1000 0
DWIDTH 16 0
BBX 16 16 0 -2
BITMAP
1048
29fe
444a
01fe
7d48
11ff
108b
7cfc
1084
10fc
54fc
3884
10fc
7d02
0000
0000
ENDCHAR
STARTCHAR ch-41
ENCODING 41
SWIDTH 1000 0
DWIDTH 16 0
BBX 16 16 0 -2
BITMAP
1041
2a22
457f
0008
7db4
108d
1136
7d0e
10b5
1084
5484
3898
10c0
7d3f
0000
0000
ENDCHAR
STARTCHAR ch-42
ENCODING 42
SWIDTH 1000 0
DWIDTH 16 0
BBX 16 16 0 -2
BITMAP
1020
2838
47ff
0221
7efc
123c
127c
7e54
127c
1254
567c
39ff
1041
7d86
0000
0000
ENDCHAR
STARTCHAR ch-43
ENCODING 43
SWIDTH 1000 0
DWIDTH 16 0
BBX 16 16 0 -2
BITMAP
1050
2888
45ff
0088
7cff
10ff
1088
7cff
1000
54e7
38a5
10bd
7c81
0082
0000
0000
ENDCHAR
STARTCHAR ch-44
ENCODING 44
SWIDTH 1000 0
DWIDTH 16 0
BBX 16 16 0 -2
BITMAP
1010
285e
4450
01ff
7c05
11ff
1100
11f4
7d24
116d
55b6
3925
12cb
7c01
0000
0000
ENDCHAR
STARTCHAR ch-46
ENCODING 46
SWIDTH 1000 0
DWIDTH 16 0
BBX 16 16 0 -2
BITMAP
1010
2bff
4644
03ff
7e28
12fe
122a
7fff
122a
56fe
3aaa
1329
7c28
0028
0000
0000
ENDCHAR
STARTCHAR ch-48
ENCODING 48
SWIDTH 1000 0
DWIDTH 16 0
BBX 16 16 0 -2
BITMAP
107c
2844
447c
0000
7def
1129
11ef
7c10
11ff
1010
5454
3892
1111
7c10
0000
0000
ENDCHAR
STARTCHAR ch-49
ENCODING 49
SWIDTH 1000 0
DWIDTH 16 0
BBX 16 16 0 -2
BITMAP
1010
2828
4444
0082
7d7d
1000
10ee
7caa
10ee
1000
5444
3844
10aa
7d11
0000
0000
ENDCHAR
STARTCHAR ch-50
ENCODING 50
SWIDTH 1000 0
DWIDTH 16 0
BBX 16 16 0 -2
BITMAP
11ff
2925
45ff
0080
7cff
1121
10fd
7ca5
10fd
5425
39fd
1001
7c0a
0004
0000
0000
ENDCHAR
STARTCHAR ch-51
ENCODING 51
SWIDTH 1000 0
DWIDTH 16 0
BBX 16 16 0 -2
BITMAP
11ff
2810
45ff
0155
7d39
1155
10fe
7c92
1092
54fe
3892
1092
7cfe
0082
0000
0000
ENDCHAR
STARTCHAR ch-53
ENCODING 53
SWIDTH 1000 0
DWIDTH 16 0
BBX 16 16 0 -2
BITMAP
108a
2be9
4488
03ff
7c08
13e8
1228
7fe9
1009
13ea
548c
3be8
1095
7fe3
0000
0000
ENDCHAR
STARTCHAR ch-54
ENCODING 54
SWIDTH 1000 0
DWIDTH 16 0
BBX 16 16 0 -2
BITMAP
11ff
2929
45ff
0000
7dff
1000
10fe
7c82
10fe
1050
5454
38c8
1144
7c63
0000
0000
ENDCHAR
STARTCHAR ch-55
ENCODING 55
SWIDTH 1000 0
DWIDTH 16 0
BBX 16 16 0 -2
BITMAP
1044
29ff
4444
00a4
7dff
10a4
10bc
1080
7cff
1010
55ff
3854
1092
7d11
0000
0000
ENDCHAR
STARTCHAR ch-56
ENCODING 56
SWIDTH 1000 0
DWIDTH 16 0
BBX 16 16 0 -2
BITMAP
08fe
14aa
22fe
4110
3efe
0810
08fe
3e44
09ff
2a10
1cfe
0810
3e10
0010
0000
0000
ENDCHAR
STARTCHAR ch-57
ENCODING 57
SWIDTH 1000 0
DWIDTH 16 0
BBX 16 16 0 -2
BITMAP
1100
293e
44a2
002e
7daa
10ff
1141
7d5d
10d5
10d5
54dd
38c3
1080
7d7f
0000
0000
ENDCHAR
STARTCHAR ch-58
ENCODING 58
SWIDTH 1000 0
DWIDTH 16 0
BBX 16 16 0 -2
BITMAP
0010
1092
2854
45ff
0101
7d7d
1044
107c
7c00
10fe
5492
38fe
1092
7cfe
0000
0000
ENDCHAR
STARTCHAR ch-59
ENCODING 59
SWIDTH 1000 0
DWIDTH 16 0
BBX 16 16 0 -2
BITMAP
1010
281c
44ff
0091
7cfe
109e
1080
7cfe
10a0
10fc
5495
38a6
114d
7c14
0000
0000
ENDCHAR
STARTCHAR ch-60
ENCODING 60
SWIDTH 1000 0
DWIDTH 16 0
BBX 16 16 0 -2
BITMAP
1010
29ff
4454
01ff
7c44
10fe
1082
7cfe
1082
10fe
5482
38fe
1044
7c82
0000
0000
ENDCHAR
STARTCHAR ch-61
ENCODING 61
SWIDTH 1000 0
DWIDTH 16 0
BBX 16 16 0 -2
BITMAP
1108
293e
4488
007f
7da2
1094
117f
7d08
10be
1088
54ff
3888
1188
7e7f
0000
0000
ENDCHAR
STARTCHAR ch-63
ENCODING 63
SWIDTH 1000 0
DWIDTH 16 0
BBX 16 16 0 -2
BITMAP
1010
29ff
4444
01ff
7c00
10fe
1082
7cfe
1082
10fe
5400
3952
1145
7c7c
0000
0000
ENDCHAR
STARTCHAR ch-64
ENCODING 64
SWIDTH 1000 0
DWIDTH 16 0
BBX 16 16 0 -2
BITMAP
1001
29fe
4454
0092
7dff
112d
10d2
7d3e
1040
107e
54a4
3824
1018
7ce7
0000
0000
ENDCHAR
STARTCHAR ch-68
ENCODING 68
SWIDTH 1000 0
DWIDTH 16 0
BBX 16 16 0 -2
BITMAP
1010
29ff
4410
00fe
7dff
1001
10ff
7c10
11ff
11ff
5402
39ff
112a
7de6
0000
0000
ENDCHAR
STARTCHAR ch-69
ENCODING 69
SWIDTH 1000 0
DWIDTH 16 0
BBX 16 16 0 -2
BITMAP
1044
2955
44ee
00aa
7d11
1000
11ff
7d11
117d
1038
5454
3892
1111
7c10
0000
0000
ENDCHAR
STARTCHAR ch-70
ENCODING 70
SWIDTH 1000 0
DWIDTH 16 0
BBX 16 16 0 -2
BITMAP
1062
296a
44f2
0062
7df2
111f
10a2
7dfa
1046
1042
55f2
3842
1042
7df6
0000
0000
ENDCHAR
STARTCHAR ch-71
ENCODING 71
SWIDTH 1000 0
DWIDTH 16 0
BBX 16 16 0 -2
BITMAP
1010
29ff
4444
01ef
7d56
1255
1196
7c82
10fe
1082
54fe
3882
1082
7d02
0000
0000
ENDCHAR
STARTCHAR ch-72
ENCODING 72
SWIDTH 1000 0
DWIDTH 16 0
BBX 16 16 0 -2
BITMAP
11ff
2892
4511
01ff
7d11
11bb
1155
7dbb
1111
11bb
5555
39bb
1111
7d11
0000
0000
ENDCHAR
STARTCHAR ch-73
ENCODING 73
SWIDTH 1000 0
DWIDTH 16 0
BBX 16 16 0 -2
BITMAP
1044
29ff
4454
00fe
7c10
11ff
1044
7dfe
1001
10fe
54aa
38aa
10aa
7dff
0000
0000
ENDCHAR
STARTCHAR ch-74
ENCODING 74
SWIDTH 1000 0
DWIDTH 16 0
BBX 16 16 0 -2
BITMAP
1044
29ff
4454
00fe
7d88
10fe
1088
7cfe
1088
10fe
54fe
3844
1038
7dc7
0000
0000
ENDCHAR
STARTCHAR ch-75
ENCODING 75
SWIDTH 1000 0
DWIDTH 16 0
BBX 16 16 0 -2
BITMAP
043e
7fc0
3f95
24aa
3f95
3f9f
7fc4
05df
0220
07f0
0888
17f4
2492
1ffc
0000
0000
ENDCHAR
STARTCHAR ch-76
ENCODING 76
SWIDTH 1000 0
DWIDTH 16 0
BBX 16 16 0 -2
BITMAP
1010
29ff
4501
017d
7c58
1090
11fc
7c44
107c
1044
547c
3844
107c
7c82
0000
0000
ENDCHAR
STARTCHAR ch-79
ENCODING 79
SWIDTH 1000 0
DWIDTH 16 0
BBX 16 16 0 -2
BITMAP
1020
2bff
4601
02b5
7caa
103c
11fe
7d4a
13ff
1000
55fe
3810
1010
7c30
0000
0000
ENDCHAR
STARTCHAR ch-80
ENCODING 80
SWIDTH 1000 0
DWIDTH 16 0
BBX 16 16 0 -2
BITMAP
11ff
2810
45ff
0155
7d33
1000
11ff
7c20
11ff
1129
5529
3929
1129
7d03
0000
0000
ENDCHAR
STARTCHAR ch-81
ENCODING 81
SWIDTH 1000 0
DWIDTH 16 0
BBX 16 16 0 -2
BITMAP
11e8
2948
45ee
0130
7de0
114e
11e0
7c00
11fe
554a
394a
114a
114a
7fff
0000
0000
ENDCHAR
STARTCHAR ch-82
ENCODING 82
SWIDTH 1000 0
DWIDTH 16 0
BBX 16 16 0 -2
BITMAP
7f20
443f
7f48
417f
7f55
4455
7f7f
03e0
0410
0be8
1084
67f3
0490
0ff8
0000
0000
ENDCHAR
STARTCHAR ch-85
ENCODING 85
SWIDTH 1000 0
DWIDTH 16 0
BBX 16 16 0 -2
BITMAP
1021
29ce
4508
01ef
7d4a
1042
10fe
7c82
10fe
1082
54fe
3882
10fe
7d01
0000
0000
ENDCHAR
STARTCHAR ch-87
ENCODING 87
SWIDTH 1000 0
DWIDTH 16 0
BBX 16 16 0 -2
BITMAP
1048
2b88
449f
03e5
7dc5
12a5
108b
7c70
10a8
112c
57f2
3871
10a8
7d24
0000
0000
ENDCHAR
STARTCHAR ch-93
ENCODING 93
SWIDTH 1000 0
DWIDTH 16 0
BBX 16 16 0 -2
BITMAP
1042
2af7
4562
003e
7c54
1388
1094
7caa
117f
10be
5488
38ff
1308
7cff
0000
0000
ENDCHAR
STARTCHAR ch-94
ENCODING 94
SWIDTH 1000 0
DWIDTH 16 0
BBX 16 16 0 -2
BITMAP
1092
2924
4492
01fe
7d32
114a
11fe
7c00
11b4
116c
55b4
396d
1125
7db3
0000
0000
ENDCHAR
STARTCHAR ch-96
ENCODING 96
SWIDTH 1000 0
DWIDTH 16 0
BBX 16 16 0 -2
BITMAP
1051
28ba
452c
01ef
7cba
112c
116d
7dff
1010
55ff
3854
1092
7d11
0010
0000
0000
ENDCHAR
STARTCHAR ch-98
ENCODING 98
SWIDTH 1000 0
DWIDTH 16 0
BBX 16 16 0 -2
BITMAP
1020
2838
47ff
0221
7efc
123c
127c
7e54
127c
1254
567c
3b52
1145
7c7c
0000
0000
ENDCHAR
STARTCHAR ch-99
ENCODING 99
SWIDTH 1000 0
DWIDTH 16 0
BBX 16 16 0 -2
BITMAP
0020
1010
29ff
4544
01ff
7d45
11ff
1144
7d77
1144
5577
3900
12aa
7d29
0000
0000
ENDCHAR
STARTCHAR ch-100
ENCODING 100
SWIDTH 1000 0
DWIDTH 16 0
BBX 16 16 0 -2
BITMAP
10fe
2882
44fe
0082
7cfe
1044
11ff
7c44
11ff
1092
5515
38f8
1054
7c92
0000
0000
ENDCHAR
STARTCHAR ch-104
ENCODING 104
SWIDTH 1000 0
DWIDTH 16 0
BBX 16 16 0 -2
BITMAP
1088
2bee
4548
03ee
7c02
11ee
1128
7d2e
11e8
112e
5528
39ee
1129
7d6f
0000
0000
ENDCHAR
STARTCHAR ch-105
ENCODING 105
SWIDTH 1000 0
DWIDTH 16 0
BBX 16 16 0 -2
BITMAP
11ff
2810
45d7
0155
7dd7
1010
11ff
7c10
1010
11d7
5555
39d7
1010
7dff
0000
0000
ENDCHAR
STARTCHAR ch-106
ENCODING 106
SWIDTH 1000 0
DWIDTH 16 0
BBX 16 16 0 -2
BITMAP
003c
1020
29ff
4521
01fe
7d3c
117c
1154
7d7c
1154
557c
3afe
10aa
7dff
0000
0000
ENDCHAR
STARTCHAR ch-107
ENCODING 107
SWIDTH 1000 0
DWIDTH 16 0
BBX 16 16 0 -2
BITMAP
0080
0360
0c18
77f7
0ff8
02a0
1ffc
0808
1414
3e3e
49c9
3e3e
2a2a
7f7f
0000
0000
ENDCHAR
STARTCHAR ch-109
ENCODING 109
SWIDTH 1000 0
DWIDTH 16 0
BBX 16 16 0 -2
BITMAP
11ef
2929
45ef
0129
7def
1111
11ff
7d11
11ff
11bb
55ff
3955
1193
7d11
0000
0000
ENDCHAR
STARTCHAR ch-110
ENCODING 110
SWIDTH 1000 0
DWIDTH 16 0
BBX 16 16 0 -2
BITMAP
1044
29ff
4444
0109
7cff
10be
102a
7d3e
10aa
10be
542a
38ff
11a2
7c96
0000
0000
ENDCHAR
STARTCHAR ch-111
ENCODING 111
SWIDTH 1000 0
DWIDTH 16 0
BBX 16 16 0 -2
BITMAP
10a4
28a6
4555
0004
03ff
7c04
10a4
11b5
7ca5
11b6
54ad
39b5
10a3
7df9
0000
0000
ENDCHAR
STARTCHAR ch-112
ENCODING 112
SWIDTH 1000 0
DWIDTH 16 0
BBX 16 16 0 -2
BITMAP
0000
1038
2844
44ba
0101
7cfe
10aa
10fe
7c00
10fe
54aa
38fe
10aa
7caa
0000
0000
ENDCHAR
STARTCHAR ch-113
ENCODING 113
SWIDTH 1000 0
DWIDTH 16 0
BBX 16 16 0 -2
BITMAP
107c
2888
45ff
0101
7dff
10f7
1084
7cff
1108
11ff
5511
39ff
104a
7d8f
0000
0000
ENDCHAR
STARTCHAR ch-114
ENCODING 114
SWIDTH 1000 0
DWIDTH 16 0
BBX 16 16 0 -2
BITMAP
0010
11ff
29ef
4529
01ef
7c44
11ff
1044
7dff
1044
55ff
388a
1184
7ceb
0000
0000
ENDCHAR
STARTCHAR ch-115
ENCODING 115
SWIDTH 1000 0
DWIDTH 16 0
BBX 16 16 0 -2
BITMAP
1010
29ff
4529
01ff
7cfe
1028
10fe
7c44
10fe
1145
547c
389c
1090
7d7e
0000
0000
ENDCHAR
STARTCHAR ch-116
ENCODING 116
SWIDTH 1000 0
DWIDTH 16 0
BBX 16 16 0 -2
BITMAP
1111
29ff
4448
00fe
7d88
10fe
10fe
7c88
10fe
11ff
5529
39ff
1145
7d7d
0000
0000
ENDCHAR
STARTCHAR ch-117
ENCODING 117
SWIDTH 1000 0
DWIDTH 16 0
BBX 16 16 0 -2
BITMAP
1044
29ff
4444
01ef
7d29
11ef
1088
7dff
1088
10ff
5488
38ff
1088
7cff
0000
0000
ENDCHAR
STARTCHAR ch-118
ENCODING 118
SWIDTH 1000 0
DWIDTH 16 0
BBX 16 16 0 -2
BITMAP
1048
2bff
4448
0005
7eff
1284
13fc
7cd4
13fc
12cd
56fe
3955
1253
7c79
0000
0000
ENDCHAR
STARTCHAR ch-119
ENCODING 119
SWIDTH 1000 0
DWIDTH 16 0
BBX 16 16 0 -2
BITMAP
10fe
2844
447c
007c
7c44
11ff
1004
7def
10aa
10ee
54ee
38aa
11ee
7c22
0000
0000
ENDCHAR
STARTCHAR ch-120
ENCODING 120
SWIDTH 1000 0
DWIDTH 16 0
BBX 16 16 0 -2
BITMAP
10fe
2892
44fe
0092
7cfe
11ef
116d
7def
116d
11ef
5410
38fe
1010
7dff
0000
0000
ENDCHAR
STARTCHAR ch-124
ENCODING 124
SWIDTH 1000 0
DWIDTH 16 0
BBX 16 16 0 -2
BITMAP
0000
13ff
2a49
4649
03ff
7c88
1112
13ff
7892
115f
57d2
389f
12d2
7a9f
0000
0000
ENDCHAR
STARTCHAR ch-125
ENCODING 125
SWIDTH 1000 0
DWIDTH 16 0
BBX 16 16 0 -2
BITMAP
114a
29ef
4442
01ef
7d4a
1063
10fe
7c82
10fe
1082
54fe
3882
10fe
7d01
0000
0000
ENDCHAR
STARTCHAR ch-126
ENCODING 126
SWIDTH 1000 0
DWIDTH 16 0
BBX 16 16 0 -2
BITMAP
1084
27e9
7bfe
2409
7fff
03e0
5635
57f5
0220
07f0
0888
13e4
2492
0ff8
0000
0000
ENDCHAR
STARTCHAR ch-127
ENCODING 127
SWIDTH 1000 0
DWIDTH 16 0
BBX 16 16 0 -2
BITMAP
52bc
3324
7fa5
3fc7
3fbe
7594
7588
7fb7
0220
0ff8
788f
0ff8
02a0
7fff
0000
0000
ENDCHAR
STARTCHAR ch-128
ENCODING 128
SWIDTH 1000 0
DWIDTH 16 0
BBX 16 16 0 -2
BITMAP
1104
29e6
47e5
053f
7fc4
15c4
17e4
7dc4
1144
11c4
57e4
3ea4
17ea
7d31
0000
0000
ENDCHAR
STARTCHAR ch-129
ENCODING 129
SWIDTH 1000 0
DWIDTH 16 0
BBX 16 16 0 -2
BITMAP
11ef
2929
45ef
01ef
7d29
11ef
1084
7cfe
11bc
108e
5484
38fe
1038
7def
0000
0000
ENDCHAR
STARTCHAR ch-130
ENCODING 130
SWIDTH 1000 0
DWIDTH 16 0
BBX 16 16 0 -2
BITMAP
1092
29ff
4501
017d
7c44
107c
10fe
7cba
10fe
1010
54fe
3810
11ff
7d29
0000
0000
ENDCHAR
STARTCHAR ch-131
ENCODING 131
SWIDTH 1000 0
DWIDTH 16 0
BBX 16 16 0 -2
BITMAP
11fe
2902
45fe
0198
7d54
11fe
11aa
7dfe
11ff
11fd
55a5
3afd
1021
7cff
0000
0000
ENDCHAR
STARTCHAR ch-375
ENCODING 375
SWIDTH 1000 0
DWIDTH 16 0
BBX 16 16 0 -2
BITMAP
0ff8
0800
0ff0
0800
0ff0
0802
7fff
0a00
0908
0890
0860
0920
0a18
3c07
0000
0000
ENDCHAR
STARTCHAR ch-378
ENCODING 378
SWIDTH 1000 0
DWIDTH 16 0
BBX 16 16 0 -2
BITMAP
0001
3e7e
2008
3e08
2008
3e7f
2008
7f08
0808
1008
2008
4214
7f22
0141
0000
0000
ENDCHAR
STARTCHAR ch-379
ENCODING 379
SWIDTH 1000 0
DWIDTH 16 0
BBX 16 16 0 -2
BITMAP
0010
7e90
20fe
2090
3d10
2010
3dff
2010
7e10
1010
2028
4244
7e82
0301
0000
0000
ENDCHAR
STARTCHAR ch-380
ENCODING 380
SWIDTH 1000 0
DWIDTH 16 0
BBX 16 16 0 -2
BITMAP
3dff
2101
2101
3dff
2100
2108
3d49
2149
217f
7f08
1149
2549
4549
7e7f
0000
0000
ENDCHAR
STARTCHAR ch-381
ENCODING 381
SWIDTH 1000 0
DWIDTH 16 0
BBX 16 16 0 -2
BITMAP
0010
7efe
2028
3d45
20fe
3d45
207c
7e44
107c
2010
4454
7e92
0210
0030
0000
0000
ENDCHAR
STARTCHAR ch-384
ENCODING 384
SWIDTH 1000 0
DWIDTH 16 0
BBX 16 16 0 -2
BITMAP
7f7f
4141
7f7f
4141
4141
7f7f
4141
4001
4001
4001
4001
4009
4005
4002
0000
0000
ENDCHAR
STARTCHAR ch-386
ENCODING 386
SWIDTH 1000 0
DWIDTH 16 0
BBX 16 16 0 -2
BITMAP
7f7f
4141
7f7f
4141
7f7f
4141
4001
4001
4011
4ff9
4001
4001
4005
4002
0000
0000
ENDCHAR
STARTCHAR ch-387
ENCODING 387
SWIDTH 1000 0
DWIDTH 16 0
BBX 16 16 0 -2
BITMAP
7f7f
4141
7f7f
4141
7f7f
4001
4081
4081
4081
4141
4221
4c19
4001
4006
0000
0000
ENDCHAR
STARTCHAR ch-390
ENCODING 390
SWIDTH 1000 0
DWIDTH 16 0
BBX 16 16 0 -2
BITMAP
7f7f
4141
7f7f
4141
7f7f
4001
4001
47f1
4001
43e1
4001
4ff9
4001
4006
0000
0000
ENDCHAR
STARTCHAR ch-392
ENCODING 392
SWIDTH 1000 0
DWIDTH 16 0
BBX 16 16 0 -2
BITMAP
7f7f
4141
7f7f
4141
7f7f
4001
4001
47f1
4081
4081
4ff9
4081
4081
4086
0000
0000
ENDCHAR
STARTCHAR ch-393
ENCODING 393
SWIDTH 1000 0
DWIDTH 16 0
BBX 16 16 0 -2
BITMAP
7f7f
4141
7f7f
4141
7f7f
4041
4051
4ff9
4041
40c1
4141
4241
4c45
4082
0000
0000
ENDCHAR
STARTCHAR ch-395
ENCODING 395
SWIDTH 1000 0
DWIDTH 16 0
BBX 16 16 0 -2
BITMAP
7f7f
4141
7f7f
4141
7f7f
4001
4001
4ff9
4221
4221
4ff9
4221
4223
4421
0000
0000
ENDCHAR
STARTCHAR ch-396
ENCODING 396
SWIDTH 1000 0
DWIDTH 16 0
BBX 16 16 0 -2
BITMAP
7f7f
4141
7f7f
4141
7f7f
4081
4ff9
4001
43e1
4221
4221
4429
4839
4003
0000
0000
ENDCHAR
STARTCHAR ch-397
ENCODING 397
SWIDTH 1000 0
DWIDTH 16 0
BBX 16 16 0 -2
BITMAP
7f7f
4141
7f7f
4141
7f7f
4081
4ff9
4201
43f1
4211
4411
4821
4145
4082
0000
0000
ENDCHAR
STARTCHAR ch-398
ENCODING 398
SWIDTH 1000 0
DWIDTH 16 0
BBX 16 16 0 -2
BITMAP
3f3f
2121
3f3f
2121
3f3f
2001
2001
2081
2ffd
2101
2241
2485
29fd
2005
0000
0000
ENDCHAR
STARTCHAR ch-399
ENCODING 399
SWIDTH 1000 0
DWIDTH 16 0
BBX 16 16 0 -2
BITMAP
7f7f
4141
7f7f
4141
7f7f
4001
4ff9
4081
4081
47f1
4081
4081
4ff9
4007
0000
0000
ENDCHAR
STARTCHAR ch-400
ENCODING 400
SWIDTH 1000 0
DWIDTH 16 0
BBX 16 16 0 -2
BITMAP
7f7f
4141
7f7f
4141
7f7f
4009
4ff1
4081
47f1
4081
4ff9
4081
4089
40fb
0000
0000
ENDCHAR
STARTCHAR ch-401
ENCODING 401
SWIDTH 1000 0
DWIDTH 16 0
BBX 16 16 0 -2
BITMAP
7f7f
4141
7f7f
4141
7f7f
4001
4081
4081
4ff9
4081
41c1
42a1
4491
488b
0000
0000
ENDCHAR
STARTCHAR ch-402
ENCODING 402
SWIDTH 1000 0
DWIDTH 16 0
BBX 16 16 0 -2
BITMAP
7f7f
4141
7f7f
4141
7f7f
4001
4001
4ff9
4809
4ff9
4809
4ff9
4809
501b
0000
0000
ENDCHAR
STARTCHAR ch-403
ENCODING 403
SWIDTH 1000 0
DWIDTH 16 0
BBX 16 16 0 -2
BITMAP
7f7f
4141
7f7f
4141
7f7f
4001
4001
47f1
4411
47f1
4411
47f1
4413
4001
0000
0000
ENDCHAR
STARTCHAR ch-404
ENCODING 404
SWIDTH 1000 0
DWIDTH 16 0
BBX 16 16 0 -2
BITMAP
7f7f
4141
7f7f
4141
7f7f
4001
4081
4ff9
4221
4141
4081
4141
4221
4c1b
0000
0000
ENDCHAR
STARTCHAR ch-408
ENCODING 408
SWIDTH 1000 0
DWIDTH 16 0
BBX 16 16 0 -2
BITMAP
7f7f
4141
7f7f
4141
7f7f
4001
4ff9
4889
4ff9
4889
4ff9
4081
4081
4083
0000
0000
ENDCHAR
STARTCHAR ch-411
ENCODING 411
SWIDTH 1000 0
DWIDTH 16 0
BBX 16 16 0 -2
BITMAP
7f7f
4141
7f7f
4141
7f7f
4001
4ff9
4491
42a1
5ffd
4081
4081
4085
4002
0000
0000
ENDCHAR
STARTCHAR ch-412
ENCODING 412
SWIDTH 1000 0
DWIDTH 16 0
BBX 16 16 0 -2
BITMAP
7f7f
4141
7f7f
4141
7f7f
4001
4ff9
4011
4791
4491
4791
4011
4065
4002
0000
0000
ENDCHAR
STARTCHAR ch-414
ENCODING 414
SWIDTH 1000 0
DWIDTH 16 0
BBX 16 16 0 -2
BITMAP
7f7f
4141
7f7f
4141
7f7f
4001
4101
4211
4ff9
4221
5ffd
4221
4225
4422
0000
0000
ENDCHAR
STARTCHAR ch-415
ENCODING 415
SWIDTH 1000 0
DWIDTH 16 0
BBX 16 16 0 -2
BITMAP
7f7f
4141
7f7f
4141
7f7f
4081
4251
4a11
4a09
4a41
4281
4311
4ff5
4002
0000
0000
ENDCHAR
STARTCHAR ch-417
ENCODING 417
SWIDTH 1000 0
DWIDTH 16 0
BBX 16 16 0 -2
BITMAP
7e3f
4221
7e3f
4221
7e3f
4081
4ff9
4101
4241
4791
4121
4251
4489
4102
0000
0000
ENDCHAR
STARTCHAR ch-419
ENCODING 419
SWIDTH 1000 0
DWIDTH 16 0
BBX 16 16 0 -2
BITMAP
7e3f
4221
7e3f
4221
7ebf
41f1
4211
4d21
40c1
4331
4ded
4121
41e5
4002
0000
0000
ENDCHAR
STARTCHAR ch-420
ENCODING 420
SWIDTH 1000 0
DWIDTH 16 0
BBX 16 16 0 -2
BITMAP
7e3f
4221
7e3f
4221
7e3f
4081
4141
4221
45d1
580d
43e1
4221
43e5
4002
0000
0000
ENDCHAR
STARTCHAR ch-421
ENCODING 421
SWIDTH 1000 0
DWIDTH 16 0
BBX 16 16 0 -2
BITMAP
7e3f
4221
7e3f
4221
7e3f
4411
4849
5ffd
6841
4849
4851
4821
4859
4002
0000
0000
ENDCHAR
STARTCHAR ch-424
ENCODING 424
SWIDTH 1000 0
DWIDTH 16 0
BBX 16 16 0 -2
BITMAP
7e3f
4221
7e3f
4221
7e3f
4081
47f1
4081
4ff9
4081
47f1
4081
4ff9
4002
0000
0000
ENDCHAR
STARTCHAR ch-425
ENCODING 425
SWIDTH 1000 0
DWIDTH 16 0
BBX 16 16 0 -2
BITMAP
7e3f
4221
7e3f
4221
7e3f
4001
4081
47f1
4491
47f1
4081
4091
4ff9
4002
0000
0000
ENDCHAR
STARTCHAR ch-427
ENCODING 427
SWIDTH 1000 0
DWIDTH 16 0
BBX 16 16 0 -2
BITMAP
7f7f
4141
7f7f
4141
7f7f
4001
4ff9
4889
4ff9
4889
49c9
4aa9
4889
4ffb
0000
0000
ENDCHAR
STARTCHAR ch-428
ENCODING 428
SWIDTH 1000 0
DWIDTH 16 0
BBX 16 16 0 -2
BITMAP
7f7f
4141
7f7f
4141
7f7f
4081
47f1
4411
47f1
4411
47f1
4449
4531
4e1b
0000
0000
ENDCHAR
STARTCHAR ch-429
ENCODING 429
SWIDTH 1000 0
DWIDTH 16 0
BBX 16 16 0 -2
BITMAP
7e3f
4221
7e3f
4221
7e3f
4001
47f1
4411
47f1
4101
4ff9
4809
4ff9
4002
0000
0000
ENDCHAR
STARTCHAR ch-430
ENCODING 430
SWIDTH 1000 0
DWIDTH 16 0
BBX 16 16 0 -2
BITMAP
7f7f
4141
7f7f
4141
7f7f
4001
5df9
4421
49fd
4421
54f9
4801
57fd
4003
0000
0000
ENDCHAR
STARTCHAR ch-432
ENCODING 432
SWIDTH 1000 0
DWIDTH 16 0
BBX 16 16 0 -2
BITMAP
7f7f
4141
7f7f
4141
7f7f
4001
4401
4839
4809
4e39
4809
4809
4ff9
4003
0000
0000
ENDCHAR
STARTCHAR ch-433
ENCODING 433
SWIDTH 1000 0
DWIDTH 16 0
BBX 16 16 0 -2
BITMAP
7e3f
4221
7e3f
4221
7e3f
4421
4241
4ff1
4811
4ff1
4241
4245
4c3d
4002
0000
0000
ENDCHAR
STARTCHAR ch-437
ENCODING 437
SWIDTH 1000 0
DWIDTH 16 0
BBX 16 16 0 -2
BITMAP
7f7f
4141
7f7f
4141
7f7f
4001
4421
4ff9
5421
47f9
4421
47f9
4421
47fb
0000
0000
ENDCHAR
STARTCHAR ch-438
ENCODING 438
SWIDTH 1000 0
DWIDTH 16 0
BBX 16 16 0 -2
BITMAP
7e3f
4221
7e3f
4221
7e3f
43e1
4221
43e1
43e1
47f1
4411
47f1
4411
47f3
0000
0000
ENDCHAR
STARTCHAR ch-439
ENCODING 439
SWIDTH 1000 0
DWIDTH 16 0
BBX 16 16 0 -2
BITMAP
01ef
4529
2929
11ef
2929
4529
11ef
1511
7d11
1111
1129
3945
5501
1103
0000
0000
ENDCHAR
STARTCHAR ch-441
ENCODING 441
SWIDTH 1000 0
DWIDTH 16 0
BBX 16 16 0 -2
BITMAP
7e3f
4221
7e3f
4221
7ebf
4ff9
42a1
47f1
4aa9
53e5
42a1
43e1
408b
40f9
0000
0000
ENDCHAR
STARTCHAR ch-442
ENCODING 442
SWIDTH 1000 0
DWIDTH 16 0
BBX 16 16 0 -2
BITMAP
7f7f
4141
7f7f
4141
7f7f
47f1
47d1
4411
47f1
4201
5ffd
4221
41c1
4633
0000
0000
ENDCHAR
STARTCHAR ch-443
ENCODING 443
SWIDTH 1000 0
DWIDTH 16 0
BBX 16 16 0 -2
BITMAP
7f7f
4141
7f7f
4141
7f7f
4401
47f1
4841
4479
4809
4f79
4809
4ff9
4002
0000
0000
ENDCHAR
STARTCHAR ch-444
ENCODING 444
SWIDTH 1000 0
DWIDTH 16 0
BBX 16 16 0 -2
BITMAP
7e3f
4221
7e3f
4221
7e3f
4001
4421
4261
4f91
440d
4721
4511
4943
4631
0000
0000
ENDCHAR
STARTCHAR ch-445
ENCODING 445
SWIDTH 1000 0
DWIDTH 16 0
BBX 16 16 0 -2
BITMAP
7f7f
4141
7f7f
4141
7f7f
4fe1
4841
4ff9
4a21
4c15
47f9
47e9
4409
47fb
0000
0000
ENDCHAR
STARTCHAR ch-446
ENCODING 446
SWIDTH 1000 0
DWIDTH 16 0
BBX 16 16 0 -2
BITMAP
7e3f
4221
7e3f
4221
7e3f
4049
4ff9
4041
4e41
4a49
4e51
4025
4edd
4003
0000
0000
ENDCHAR
STARTCHAR ch-447
ENCODING 447
SWIDTH 1000 0
DWIDTH 16 0
BBX 16 16 0 -2
BITMAP
7f7f
4141
7f7f
4141
7f7f
4011
4fe1
4489
5ffd
5005
53e5
4221
41c1
463b
0000
0000
ENDCHAR
STARTCHAR ch-448
ENCODING 448
SWIDTH 1000 0
DWIDTH 16 0
BBX 16 16 0 -2
BITMAP
7e3f
4221
7e3f
4221
7e3f
4221
47f1
4221
4ff9
4411
4be9
5225
43c9
43f3
0000
0000
ENDCHAR
STARTCHAR ch-451
ENCODING 451
SWIDTH 1000 0
DWIDTH 16 0
BBX 16 16 0 -2
BITMAP
7e3f
4221
7e3f
4221
7e3f
43e1
43e1
43e1
4221
43e1
4091
5ffd
4221
4c1b
0000
0000
ENDCHAR
STARTCHAR ch-453
ENCODING 453
SWIDTH 1000 0
DWIDTH 16 0
BBX 16 16 0 -2
BITMAP
7e3f
4221
7e3f
4221
7e3f
47f1
47d1
47d1
47f1
4081
47f1
4141
4081
4773
0000
0000
ENDCHAR
STARTCHAR ch-454
ENCODING 454
SWIDTH 1000 0
DWIDTH 16 0
BBX 16 16 0 -2
BITMAP
7f7f
4141
7f7f
4141
7f7f
4001
47f1
4411
47f1
4001
4f79
4949
4f79
4002
0000
0000
ENDCHAR
STARTCHAR ch-455
ENCODING 455
SWIDTH 1000 0
DWIDTH 16 0
BBX 16 16 0 -2
BITMAP
7f7f
4141
7f7f
4141
7f7f
4081
4ff9
4411
5ffd
4ff9
4809
4ff9
4809
4ffb
0000
0000
ENDCHAR
STARTCHAR ch-456
ENCODING 456
SWIDTH 1000 0
DWIDTH 16 0
BBX 16 16 0 -2
BITMAP
7c1f
4411
7c1f
4411
7c9f
43e1
4ff9
4221
43e1
47f1
4281
4ff9
4081
4082
0000
0000
ENDCHAR
STARTCHAR ch-457
ENCODING 457
SWIDTH 1000 0
DWIDTH 16 0
BBX 16 16 0 -2
BITMAP
7f7f
4141
7f7f
4141
7f7f
4ff9
4221
4ff9
4a29
4ff9
4081
47f1
4081
4ffb
0000
0000
ENDCHAR
STARTCHAR ch-458
ENCODING 458
SWIDTH 1000 0
DWIDTH 16 0
BBX 16 16 0 -2
BITMAP
7e3f
4221
7e3f
4221
7e3f
48f9
4621
48f9
4621
40f9
4289
4c89
44f9
448a
0000
0000
ENDCHAR
STARTCHAR ch-459
ENCODING 459
SWIDTH 1000 0
DWIDTH 16 0
BBX 16 16 0 -2
BITMAP
7e3f
4221
7e3f
4221
7e3f
4f79
5145
4a29
47f1
4889
57f5
4141
4221
4412
0000
0000
ENDCHAR
STARTCHAR ch-460
ENCODING 460
SWIDTH 1000 0
DWIDTH 16 0
BBX 16 16 0 -2
BITMAP
7e3f
4221
7e3f
4221
7e3f
4081
4ff9
4081
4ff9
4aa9
4ff9
41c1
4eb9
4082
0000
0000
ENDCHAR
STARTCHAR ch-461
ENCODING 461
SWIDTH 1000 0
DWIDTH 16 0
BBX 16 16 0 -2
BITMAP
7e3f
4221
7e3f
4221
7ebf
47f1
40a1
4ff9
4101
43f1
4611
4bf1
4211
43f3
0000
0000
ENDCHAR
STARTCHAR ch-464
ENCODING 464
SWIDTH 1000 0
DWIDTH 16 0
BBX 16 16 0 -2
BITMAP
7e3f
4221
7e3f
4221
7ebf
4ff9
47f1
4411
47d1
47d1
47d1
4411
5ffd
480b
0000
0000
ENDCHAR
STARTCHAR ch-465
ENCODING 465
SWIDTH 1000 0
DWIDTH 16 0
BBX 16 16 0 -2
BITMAP
7f7f
4141
7f7f
4141
7f7f
4401
4ff9
5fe9
4fe9
4ff9
4081
5ffd
4491
488a
0000
0000
ENDCHAR
STARTCHAR ch-466
ENCODING 466
SWIDTH 1000 0
DWIDTH 16 0
BBX 16 16 0 -2
BITMAP
7f7f
4141
7f7f
4141
7f7f
47f1
4411
47f1
4411
47f1
4f79
4949
4529
494b
0000
0000
ENDCHAR
STARTCHAR ch-467
ENCODING 467
SWIDTH 1000 0
DWIDTH 16 0
BBX 16 16 0 -2
BITMAP
7f7f
4141
7f7f
4141
7f7f
4889
4ff9
5ffd
4ff9
4809
4ff9
4411
4221
4ffa
0000
0000
ENDCHAR
STARTCHAR ch-468
ENCODING 468
SWIDTH 1000 0
DWIDTH 16 0
BBX 16 16 0 -2
BITMAP
7f7f
4141
7f7f
4141
7f7f
4081
47f1
4081
4ff9
4211
47f1
47f1
4551
4ffb
0000
0000
ENDCHAR
STARTCHAR ch-469
ENCODING 469
SWIDTH 1000 0
DWIDTH 16 0
BBX 16 16 0 -2
BITMAP
7f7f
4141
7f7f
4141
7f7f
5141
4a7d
5f45
4491
5511
5f29
4445
4803
4002
0000
0000
ENDCHAR
STARTCHAR ch-470
ENCODING 470
SWIDTH 1000 0
DWIDTH 16 0
BBX 16 16 0 -2
BITMAP
7e3f
4221
7e3f
4221
7e3f
47f1
47e1
47e1
4481
47f9
4009
4aa9
4019
4002
0000
0000
ENDCHAR
STARTCHAR ch-474
ENCODING 474
SWIDTH 1000 0
DWIDTH 16 0
BBX 16 16 0 -2
BITMAP
7e3f
4221
7e3f
4221
7e3f
44f1
4491
5ff1
4491
44f1
5f91
44f1
4a65
519d
0000
0000
ENDCHAR
STARTCHAR ch-475
ENCODING 475
SWIDTH 1000 0
DWIDTH 16 0
BBX 16 16 0 -2
BITMAP
7e3f
4221
7e3f
4221
7e3f
4491
4ff9
4be9
4221
43e1
4081
47f1
4081
4ffb
0000
0000
ENDCHAR
STARTCHAR ch-476
ENCODING 476
SWIDTH 1000 0
DWIDTH 16 0
BBX 16 16 0 -2
BITMAP
7f7f
4141
7f7f
4141
7f7f
4411
4921
4e79
4411
4a25
5f7d
4949
4f79
4143
0000
0000
ENDCHAR
STARTCHAR ch-478
ENCODING 478
SWIDTH 1000 0
DWIDTH 16 0
BBX 16 16 0 -2
BITMAP
7f7f
4141
7f7f
4141
7f7f
47a1
4121
4fe1
44bd
47c9
4789
44a9
4f91
40ab
0000
0000
ENDCHAR
STARTCHAR ch-479
ENCODING 479
SWIDTH 1000 0
DWIDTH 16 0
BBX 16 16 0 -2
BITMAP
7f7f
4141
7f7f
4141
7f7f
41c1
4221
45d1
4ff9
5415
47f1
5f7d
4925
565b
0000
0000
ENDCHAR
STARTCHAR ch-480
ENCODING 480
SWIDTH 1000 0
DWIDTH 16 0
BBX 16 16 0 -2
BITMAP
7e3f
4221
7e3f
4221
7ebf
47f1
4491
47f1
4ff9
47f1
47d1
47d1
47f1
480b
0000
0000
ENDCHAR
STARTCHAR ch-481
ENCODING 481
SWIDTH 1000 0
DWIDTH 16 0
BBX 16 16 0 -2
BITMAP
7f7f
4141
7f7f
4141
7f7f
4f79
4949
4f79
47f1
47d1
4491
47f1
4ff9
4083
0000
0000
ENDCHAR
STARTCHAR ch-482
ENCODING 482
SWIDTH 1000 0
DWIDTH 16 0
BBX 16 16 0 -2
BITMAP
7e3f
4221
7e3f
4221
7e3f
4021
5f11
517d
5f29
50ff
5f11
697d
4f11
4002
0000
0000
ENDCHAR
STARTCHAR ch-483
ENCODING 483
SWIDTH 1000 0
DWIDTH 16 0
BBX 16 16 0 -2
BITMAP
7f7f
4141
7f7f
4141
7f7f
4491
5ffd
53e5
5225
43e1
4ff9
4fe9
4889
4ffb
0000
0000
ENDCHAR
STARTCHAR ch-484
ENCODING 484
SWIDTH 1000 0
DWIDTH 16 0
BBX 16 16 0 -2
BITMAP
7f7f
4141
7f7f
4141
7f7f
4ff9
4949
4ff9
5ffd
47f1
4411
47f1
4ca1
477b
0000
0000
ENDCHAR
STARTCHAR ch-485
ENCODING 485
SWIDTH 1000 0
DWIDTH 16 0
BBX 16 16 0 -2
BITMAP
7f7f
4141
7f7f
4141
7f7f
5021
48f9
41fd
5c89
45fd
48f9
45fd
5821
47ff
0000
0000
ENDCHAR
ENDFONT
